# xmcd
#
# Track frame offsets:
# 150
# 38137
# 83987
# 124565
# 170795
#
# Disc length: 2993 seconds
#
#
# Revision: 4
# Processed by: cddbd v1.5.1PL0 Copyright (c) Steve Scherf et al.
# Submitted via: FreeRIP 2.941 
#
DISCID=3a0baf05
DTITLE=Lonnie Smith - Move Your Hand
DYEAR=1969
DGENRE=Jazz
TTITLE0=Charlie Brown
TTITLE1=Layin' In The Cut
TTITLE2=Move Your Hand
TTITLE3=Sunshine Superman
TTITLE4=Dancin' In An Easy Groove
EXTD=
EXTT0=
EXTT1=
EXTT2=
EXTT3=
EXTT4=
PLAYORDER=
